<svg xmlns="http://www.w3.org/2000/svg" viewBox="0 0 600 200" preserveAspectRatio="xMidYMid slice">
  <defs>
    <linearGradient id="hk" x1="0" y1="0" x2="0" y2="1">
      <stop offset="0" stop-color="#7c869a"/>
      <stop offset="45%" stop-color="#566075"/>
      <stop offset="100%" stop-color="#343c4c"/>
    </linearGradient>
  </defs>
  <rect width="600" height="200" fill="url(#hk)"/>
  <!-- knurled edge ridges -->
  <g stroke="#232834" stroke-width="5">
    <line x1="0" y1="0" x2="0" y2="200"/><line x1="20" y1="0" x2="20" y2="200"/>
    <line x1="40" y1="0" x2="40" y2="200"/><line x1="60" y1="0" x2="60" y2="200"/>
    <line x1="80" y1="0" x2="80" y2="200"/><line x1="100" y1="0" x2="100" y2="200"/>
    <line x1="120" y1="0" x2="120" y2="200"/><line x1="140" y1="0" x2="140" y2="200"/>
    <line x1="160" y1="0" x2="160" y2="200"/><line x1="180" y1="0" x2="180" y2="200"/>
    <line x1="200" y1="0" x2="200" y2="200"/><line x1="220" y1="0" x2="220" y2="200"/>
    <line x1="240" y1="0" x2="240" y2="200"/><line x1="260" y1="0" x2="260" y2="200"/>
    <line x1="280" y1="0" x2="280" y2="200"/><line x1="300" y1="0" x2="300" y2="200"/>
    <line x1="320" y1="0" x2="320" y2="200"/><line x1="340" y1="0" x2="340" y2="200"/>
    <line x1="360" y1="0" x2="360" y2="200"/><line x1="380" y1="0" x2="380" y2="200"/>
    <line x1="400" y1="0" x2="400" y2="200"/><line x1="420" y1="0" x2="420" y2="200"/>
    <line x1="440" y1="0" x2="440" y2="200"/><line x1="460" y1="0" x2="460" y2="200"/>
    <line x1="480" y1="0" x2="480" y2="200"/><line x1="500" y1="0" x2="500" y2="200"/>
    <line x1="520" y1="0" x2="520" y2="200"/><line x1="540" y1="0" x2="540" y2="200"/>
    <line x1="560" y1="0" x2="560" y2="200"/><line x1="580" y1="0" x2="580" y2="200"/>
    <line x1="600" y1="0" x2="600" y2="200"/>
  </g>
  <!-- top sheen -->
  <rect width="600" height="46" fill="#6b7689" opacity="0.28"/>
</svg>
